# xmcd
#
# Track frame offsets: 
#        150
#        29086
#        51028
#        69216
#        91737
#        119385
#        137426
#        157042
#        187636
#        203929
#        219950
#        239594
#        263194
#        280128
#        298894
#        314546
#
# Disc length: 4401 seconds
#
# Revision: 0
# Processed by: cddbd v1.5.2PL0 Copyright (c) Steve Scherf et al.
# Submitted via: ExactAudioCopy v0.99pb5
#
DISCID=ec112f10
DTITLE=Pat Travers  - 8 and 8 - Best of '77-'80  FLAC
DYEAR=1900
DGENRE=
TTITLE0=Hooked On Music (Live)
TTITLE1=Gettin' Betta (Live)
TTITLE2=Go All Night (Live)
TTITLE3=Boom Boom (Out Go the Lights) Live
TTITLE4=Stevie (Live)
TTITLE5=Makin' Magic (Live)
TTITLE6=Heat In the Street (Live)
TTITLE7=Makes No Difference (Live)
TTITLE8=Rock 'n' Roll Susie
TTITLE9=Your Love Cant Be Right
TTITLE10=Life In London
TTITLE11=Is This Love
TTITLE12=Statesboro Blues
TTITLE13=Evie
TTITLE14=You Don't Love Me
TTITLE15=Snortin' Whiskey
EXTD=
EXTT0=
EXTT1=
EXTT2=
EXTT3=
EXTT4=
EXTT5=
EXTT6=
EXTT7=
EXTT8=
EXTT9=
EXTT10=
EXTT11=
EXTT12=
EXTT13=
EXTT14=
EXTT15=
PLAYORDER=
